<svg preserveAspectRatio="none" overflow="visible" style="display: block;" width="14" height="14" viewBox="0 0 14 14" fill="none" xmlns="http://www.w3.org/2000/svg">
<g id="phone" clip-path="url(#clip0_0_41)">
<path id="Vector" d="M8.4536 9.70072C8.32497 9.73285 8.18924 9.72021 8.06875 9.66488C6.44837 8.86962 5.13708 7.55997 4.33979 5.94058C4.28074 5.81946 4.26544 5.68163 4.2965 5.55051C4.32755 5.41938 4.40304 5.30305 4.51013 5.22127L4.78316 5.01651C4.92806 4.90783 5.04568 4.7669 5.12668 4.60489C5.20769 4.44288 5.24986 4.26423 5.24986 4.0831V2.33296C5.24986 2.02352 5.12693 1.72675 4.90812 1.50794C4.68931 1.28913 4.39254 1.1662 4.0831 1.1662H2.33296C2.02352 1.1662 1.72675 1.28913 1.50794 1.50794C1.28913 1.72675 1.1662 2.02352 1.1662 2.33296C1.1662 5.11796 2.27254 7.78889 4.24183 9.75818C6.21111 11.7275 8.88204 12.8338 11.667 12.8338C11.9765 12.8338 12.2733 12.7109 12.4921 12.4921C12.7109 12.2733 12.8338 11.9765 12.8338 11.667V9.9169C12.8338 9.60746 12.7109 9.31069 12.4921 9.09188C12.2733 8.87307 11.9765 8.75014 11.667 8.75014H9.9169C9.73577 8.75014 9.55712 8.79231 9.39511 8.87332C9.2331 8.95432 9.09217 9.07194 8.98349 9.21684L8.77639 9.48812C8.69608 9.59361 8.58223 9.66859 8.4536 9.70072Z" stroke="#F40B0D" stroke-linecap="round"/>
</g>
<defs>
<clipPath id="clip0_0_41">
<rect width="14" height="14" fill="white"/>
</clipPath>
</defs>
</svg>
